<?xml version="1.0" standalone="no"?>
<!DOCTYPE svg PUBLIC "-//W3C//DTD SVG 20010904//EN"
 "http://www.w3.org/TR/2001/REC-SVG-20010904/DTD/svg10.dtd">
<svg version="1.0" xmlns="http://www.w3.org/2000/svg"
 width="1636.000000pt" height="1636.000000pt" viewBox="0 0 1636.000000 1636.000000"
 preserveAspectRatio="xMidYMid meet">

<g transform="translate(0.000000,1636.000000) scale(0.100000,-0.100000)"
fill="#000000" stroke="none">
<path d="M5430 13640 l0 -2720 -2715 0 -2715 0 0 -2730 0 -2730 2715 0 2715 0
0 -2730 0 -2730 2735 0 2735 0 0 2730 0 2730 2730 0 2730 0 0 2730 0 2730
-2730 0 -2730 0 0 2720 0 2720 -2735 0 -2735 0 0 -2720z m5470 -5450 l0 -2730
-2735 0 -2735 0 0 2730 0 2730 2735 0 2735 0 0 -2730z"/>
</g>
</svg>
